<?xml version="1.0" encoding="UTF-8"?>
<svg version="1.1" xmlns="http://www.w3.org/2000/svg" width="1414" height="2000">
<path d="M0 0 C466.62 0 933.24 0 1414 0 C1414 660 1414 1320 1414 2000 C947.38 2000 480.76 2000 0 2000 C0 1340 0 680 0 0 Z " fill="#52E700" transform="translate(0,0)"/>
<path d="M0 0 C0.80781921 0.02040344 1.61563843 0.04080688 2.44793701 0.06182861 C32.30323032 0.84895414 62.29755545 5.7468631 91 14 C92.2684375 14.36351562 93.536875 14.72703125 94.84375 15.1015625 C128.04022506 25.49415267 159.17643169 41.19180489 187 62 C187.62729004 62.4635791 188.25458008 62.9271582 188.90087891 63.40478516 C198.46667592 70.55101292 206.99388587 78.71066746 215.4375 87.125 C216.20068039 87.88266663 216.20068039 87.88266663 216.97927856 88.65563965 C223.77177694 95.42245413 230.06377252 102.45973616 236 110 C236.48637939 110.60666504 236.97275879 111.21333008 237.47387695 111.83837891 C266.32853849 147.93083179 284.09570125 190.32459665 298 234 C298.40412109 235.26312012 298.40412109 235.26312012 298.81640625 236.55175781 C303.31479814 250.86307029 305.93643027 265.70836042 308.86477661 280.40148926 C309.56512353 283.90199525 310.30425491 287.3872936 311.1171875 290.86328125 C312.22069331 295.74062618 312.82799079 300.66540259 313.4375 305.625 C313.69495213 307.67322241 313.95277487 309.72139827 314.2109375 311.76953125 C314.40574707 313.32534912 314.40574707 313.32534912 314.60449219 314.91259766 C314.98008002 317.84450118 315.37923155 320.77192748 315.7890625 323.69921875 C319.56759332 350.82527425 320.29939959 377.59797394 320.19561768 404.93487549 C320.18479411 408.52170697 320.18519953 412.10850091 320.18560982 415.69534588 C320.18499326 441.86749899 319.61094652 467.85731665 317.25 493.9375 C317.16352203 494.90245392 317.07704407 495.86740784 316.98794556 496.86160278 C315.43486086 513.99891351 313.29660834 530.95277516 310.36071777 547.90594482 C309.98604638 550.08100422 309.61980766 552.25736742 309.25488281 554.43408203 C303.70409337 587.3822228 296.56899391 620.27022062 286 652 C285.51557937 653.47237143 285.03156111 654.94487528 284.54785156 656.41748047 C264.93330848 715.99002855 239.70750326 772.17683403 204 824 C203.37496582 824.90854736 203.37496582 824.90854736 202.73730469 825.83544922 C189.35010727 845.18388056 174.39295148 863.2691883 158.38867188 880.49365234 C156.96998171 882.03256204 155.56943093 883.58641934 154.171875 885.14453125 C142.44612746 898.15469671 129.46562469 909.82141182 116 921 C115.40751465 921.49209961 114.8150293 921.98419922 114.20458984 922.49121094 C67.09578194 961.38792743 9.95739622 990.25712079 -50.53515625 1000.578125 C-52.16498689 1000.85708175 -53.7927294 1001.14855672 -55.41796875 1001.453125 C-69.46186004 1004.04309541 -83.45130143 1004.2897825 -97.6875 1004.3125 C-98.60186829 1004.31608521 -99.51623657 1004.31967041 -100.45831299 1004.32336426 C-126.91695251 1004.3791754 -126.91695251 1004.3791754 -138.25 998.3125 C-138.9318335 997.95800781 -139.61366699 997.60351562 -140.31616211 997.23828125 C-145.5286268 994.44265791 -149.9247157 991.31557229 -154 987 C-154.88171875 986.14728516 -154.88171875 986.14728516 -155.78125 985.27734375 C-175.10021977 965.32288155 -174.29824512 934.746735 -174.30297852 908.95458984 C-174.31065857 906.46226227 -174.31920844 903.96993725 -174.32855225 901.47761536 C-174.34676491 896.12081829 -174.35910392 890.76405782 -174.36609077 885.40723801 C-174.37643604 877.54169255 -174.39863292 869.67621158 -174.42347669 861.81070013 C-174.46405796 848.8842308 -174.49646714 835.95775495 -174.52319336 823.03125 C-174.58256109 794.34808188 -174.65920519 765.66496038 -174.74121928 736.98184872 C-174.74972085 734.00481418 -174.75808694 731.02777931 -174.76633382 728.05074406 C-174.92908396 669.3645383 -175.34813664 610.68300121 -176 552 C-176.01019212 551.07940009 -176.02038424 550.15880018 -176.03088522 549.21030331 C-176.28297616 526.4803877 -176.56702808 503.75097378 -176.87617874 481.02176666 C-176.93977884 476.34164944 -177.00225866 471.66151753 -177.06466675 466.98138428 C-177.64360264 423.62657286 -178.27821482 380.27276007 -178.99946976 336.92007446 C-179.06144259 333.18866688 -179.12278905 329.45724939 -179.18405151 325.72583008 C-179.7412092 280.27666272 -179.7412092 280.27666272 -181.67263794 234.8730011 C-181.95903511 230.16445509 -182.10638845 225.46932812 -182.17578125 220.75390625 C-182.1863707 220.03854202 -182.19696014 219.3231778 -182.20787048 218.58613586 C-182.23007024 217.06066907 -182.25226126 215.53520214 -182.27444458 214.00973511 C-182.52392209 197.96655068 -183.15469683 181.95337404 -183.953125 165.9296875 C-183.99745855 165.03600149 -184.04179211 164.14231548 -184.0874691 163.22154808 C-184.49563939 155.00964503 -184.90815349 146.79798736 -185.34732056 138.587677 C-186.27329786 121.27197334 -187.1910946 103.9441292 -187.4031353 86.60217476 C-187.42291757 85.19879092 -187.45088721 83.7954899 -187.488451 82.39246941 C-187.97225749 63.18241685 -180.86740483 45.26752909 -167.98828125 31.046875 C-149.60371534 11.7403692 -125.11723406 8.25595037 -100 5 C-98.78802948 4.8402066 -98.78802948 4.8402066 -97.55157471 4.67718506 C-64.96111281 0.40188046 -32.84960623 -0.88524601 0 0 Z " fill="#FE9500" transform="translate(657,427)"/>
<path d="M0 0 C0.87216156 -0.00637985 1.74432312 -0.0127597 2.64291382 -0.01933289 C4.04291122 -0.02100212 4.04291122 -0.02100212 5.47119141 -0.02270508 C6.44955963 -0.02603348 7.42792786 -0.02936188 8.4359436 -0.03279114 C10.50872326 -0.03784891 12.58151105 -0.04019982 14.65429688 -0.04003906 C17.77699853 -0.0422046 20.89933444 -0.06031427 24.02197266 -0.0793457 C35.01311506 -0.11080245 45.60098581 0.19856532 56.44775391 2.14526367 C57.64416504 2.35638794 57.64416504 2.35638794 58.86474609 2.57177734 C102.37506956 10.957759 140.32037081 36.85108958 165.26025391 73.27026367 C183.45413676 100.73222296 196.22267931 132.08806136 204.078125 164.01489258 C204.57147583 166.01508198 205.07734217 168.01181031 205.58447266 170.00854492 C209.59598556 185.99697179 211.933882 202.00654466 213.57275391 218.39526367 C213.74280479 220.03854694 213.91337651 221.6817764 214.08447266 223.32495117 C214.25032471 224.93688026 214.41570573 226.54885789 214.58056641 228.16088867 C214.65348907 228.87166565 214.72641174 229.58244263 214.80154419 230.3147583 C215.89700916 241.29576319 216.60391502 252.19224886 216.61572266 263.23120117 C216.62193886 265.04292564 216.62193886 265.04292564 216.62828064 266.89125061 C216.63787796 270.76761998 216.63794981 274.64388434 216.63525391 278.52026367 C216.63530999 279.85743205 216.63537105 281.19460042 216.63543701 282.5317688 C216.6287563 300.71879369 216.31587493 318.74285642 214.72119141 336.86352539 C214.436531 340.27995859 214.21560694 343.6958447 214.01025391 347.11791992 C211.11322537 394.68930864 201.95924958 441.7916214 187.39501953 487.15844727 C186.41046542 490.26283772 185.46972547 493.37866402 184.52978516 496.49682617 C182.35178978 503.58836646 179.87898234 510.5572158 177.32275391 517.52026367 C176.96626266 518.49187943 176.96626266 518.49187943 176.60256958 519.48312378 C172.02462464 531.92038449 166.96343724 544.09239246 161.44775391 556.14526367 C161.05265625 557.01908691 160.65755859 557.89291016 160.25048828 558.79321289 C145.4567991 591.38896422 126.53496236 622.37867748 102.95361328 649.3684082 C101.78134225 650.7516424 100.63706782 652.15862128 99.50439453 653.57446289 C93.91074876 660.56403845 87.92705156 666.96914006 81.57275391 673.27026367 C80.65623047 674.19452148 79.73970703 675.1187793 78.79541016 676.07104492 C72.65535049 682.19383297 66.23554281 687.75624271 59.44775391 693.14526367 C58.16967459 694.19356555 56.89337508 695.24404478 55.61962891 696.29760742 C13.00233971 731.14526367 13.00233971 731.14526367 -4.55224609 731.14526367 C-6.3722186 706.35701166 -7.00598924 681.62096593 -7.32788968 656.77328491 C-7.39767955 651.52479723 -7.47668744 646.27644734 -7.55467224 641.02807617 C-7.70096101 631.097877 -7.83996968 621.16759154 -7.9758901 611.23724556 C-8.21852406 593.53209426 -8.47517525 575.82714158 -8.7323994 558.12219715 C-8.82176603 551.95259204 -8.9084122 545.78295705 -8.99261099 539.61327934 C-9.24043064 521.51709685 -9.51997454 503.42454515 -9.99426615 485.33272743 C-10.6177996 461.54304374 -10.89826673 437.75436258 -11.10693359 413.95776367 C-11.12247669 412.23585123 -11.12247669 412.23585123 -11.1383338 410.47915268 C-11.73751825 344.04667562 -11.70531204 277.61257641 -11.68170795 211.17797327 C-11.67717272 198.15990561 -11.67807252 185.14184684 -11.68261719 172.1237793 C-11.68799751 156.70641276 -11.69006543 141.28905141 -11.68700492 125.87168407 C-11.68668657 124.22511482 -11.6863722 122.57854557 -11.68606186 120.93197632 C-11.68583045 119.71890827 -11.68583045 119.71890827 -11.68559436 118.48133379 C-11.68474462 112.88758913 -11.6861565 107.29384789 -11.68854141 101.70010376 C-11.69137578 94.91002669 -11.69052296 88.11996115 -11.68526067 81.32988536 C-11.68268249 77.8944606 -11.68208032 74.45907028 -11.68490982 71.02364349 C-11.69548086 56.87194181 -11.552419 42.73659574 -11.10665894 28.59228516 C-11.06792321 27.33766259 -11.02918749 26.08304003 -10.98927796 24.7903986 C-10.71780206 16.88805709 -10.22429992 9.02352992 -9.55224609 1.14526367 C-6.30654386 0.4689888 -3.31760249 0.01662117 0 0 Z " fill="#52E700" transform="translate(623.55224609375,558.854736328125)"/>
</svg>
